<svg width="41" height="19" viewBox="0 0 41 19" fill="none" xmlns="http://www.w3.org/2000/svg">
<path d="M3.24219 16.1602H11.3281V18H0.980469V0.9375H3.24219V16.1602ZM23.3047 10.4648H16.1445V18H13.8945V0.9375H24.4648V2.78906H16.1445V8.625H23.3047V10.4648ZM40.2852 10.0195C40.2852 11.6914 40.0039 13.1523 39.4414 14.4023C38.8789 15.6445 38.082 16.5938 37.0508 17.25C36.0195 17.9062 34.8164 18.2344 33.4414 18.2344C32.0977 18.2344 30.9062 17.9062 29.8672 17.25C28.8281 16.5859 28.0195 15.6445 27.4414 14.4258C26.8711 13.1992 26.5781 11.7812 26.5625 10.1719V8.94141C26.5625 7.30078 26.8477 5.85156 27.418 4.59375C27.9883 3.33594 28.793 2.375 29.832 1.71094C30.8789 1.03906 32.0742 0.703125 33.418 0.703125C34.7852 0.703125 35.9883 1.03516 37.0273 1.69922C38.0742 2.35547 38.8789 3.3125 39.4414 4.57031C40.0039 5.82031 40.2852 7.27734 40.2852 8.94141V10.0195ZM38.0469 8.91797C38.0469 6.89453 37.6406 5.34375 36.8281 4.26562C36.0156 3.17969 34.8789 2.63672 33.418 2.63672C31.9961 2.63672 30.875 3.17969 30.0547 4.26562C29.2422 5.34375 28.8242 6.84375 28.8008 8.76562V10.0195C28.8008 11.9805 29.2109 13.5234 30.0312 14.6484C30.8594 15.7656 31.9961 16.3242 33.4414 16.3242C34.8945 16.3242 36.0195 15.7969 36.8164 14.7422C37.6133 13.6797 38.0234 12.1602 38.0469 10.1836V8.91797Z" fill="black"/>
</svg>
